<?xml version="1.0" encoding="utf-8"?>
<!-- Generator: Adobe Illustrator 27.6.1, SVG Export Plug-In . SVG Version: 6.00 Build 0)  -->
<svg version="1.1" xmlns="http://www.w3.org/2000/svg" xmlns:xlink="http://www.w3.org/1999/xlink" x="0px" y="0px"
	 viewBox="0 0 60 60" style="enable-background:new 0 0 60 60;" xml:space="preserve">
<style type="text/css">
	.st0{display:none;}
	.st1{display:inline;}
	.st2{fill:#FFFFFF;}
</style>
<g id="Layer_2" class="st0">
	<rect x="-101.5" y="-25" class="st1" width="364" height="113"/>
</g>
<g id="Layer_1">
	<g>
		<path class="st2" d="M50,0H10C4.5,0,0,4.5,0,10v40c0,5.5,4.5,10,10,10h40c5.5,0,10-4.5,10-10V10C60,4.5,55.5,0,50,0z M56,50
			c0,3.3-2.7,6-6,6H10c-3.3,0-6-2.7-6-6V10c0-3.3,2.7-6,6-6h40c3.3,0,6,2.7,6,6V50z"/>
		<path class="st2" d="M47.9,17.6c-0.5-1.2-1.1-2.3-2.2-3.4c-1.1-1.1-2.1-1.7-3.4-2.2c-1.2-0.5-2.6-0.8-4.6-0.9
			c-2-0.1-2.7-0.1-7.8-0.1s-5.8,0-7.8,0.1c-2,0.1-3.4,0.4-4.6,0.9c-1.2,0.5-2.3,1.1-3.4,2.2c-1.1,1.1-1.7,2.1-2.2,3.4
			c-0.5,1.2-0.8,2.6-0.9,4.6c-0.1,2-0.1,2.7-0.1,7.8c0,5.1,0,5.8,0.1,7.8c0.1,2,0.4,3.4,0.9,4.6c0.5,1.2,1.1,2.3,2.2,3.4
			c1.1,1.1,2.1,1.7,3.4,2.2c1.2,0.5,2.6,0.8,4.6,0.9c2,0.1,2.7,0.1,7.8,0.1s5.8,0,7.8-0.1c2-0.1,3.4-0.4,4.6-0.9
			c1.2-0.5,2.3-1.1,3.4-2.2c1.1-1.1,1.7-2.1,2.2-3.4c0.5-1.2,0.8-2.6,0.9-4.6c0.1-2,0.1-2.7,0.1-7.8s0-5.8-0.1-7.8
			C48.7,20.2,48.4,18.8,47.9,17.6z M45.4,37.7c-0.1,1.8-0.4,2.8-0.7,3.5c-0.3,0.9-0.8,1.5-1.4,2.2c-0.7,0.7-1.3,1.1-2.2,1.4
			c-0.7,0.3-1.7,0.6-3.5,0.7c-2,0.1-2.6,0.1-7.7,0.1s-5.7,0-7.7-0.1c-1.8-0.1-2.8-0.4-3.5-0.7c-0.9-0.3-1.5-0.8-2.2-1.4
			c-0.7-0.7-1.1-1.3-1.4-2.2c-0.3-0.7-0.6-1.7-0.7-3.5c-0.1-2-0.1-2.6-0.1-7.7s0-5.7,0.1-7.7c0.1-1.8,0.4-2.8,0.7-3.5
			c0.3-0.9,0.8-1.5,1.4-2.2c0.7-0.7,1.3-1.1,2.2-1.4c0.7-0.3,1.7-0.6,3.5-0.7c2-0.1,2.6-0.1,7.7-0.1s5.7,0,7.7,0.1
			c1.8,0.1,2.8,0.4,3.5,0.7c0.9,0.3,1.5,0.8,2.2,1.4c0.7,0.7,1.1,1.3,1.4,2.2c0.3,0.7,0.6,1.7,0.7,3.5c0.1,2,0.1,2.6,0.1,7.7
			S45.5,35.7,45.4,37.7z"/>
		<path class="st2" d="M30,20.3c-5.4,0-9.7,4.4-9.7,9.7s4.4,9.7,9.7,9.7s9.7-4.4,9.7-9.7S35.4,20.3,30,20.3z M30,36.3
			c-3.5,0-6.3-2.8-6.3-6.3s2.8-6.3,6.3-6.3s6.3,2.8,6.3,6.3S33.5,36.3,30,36.3z"/>
		<path class="st2" d="M40.1,17.6c-1.3,0-2.3,1-2.3,2.3s1,2.3,2.3,2.3c1.3,0,2.3-1,2.3-2.3S41.4,17.6,40.1,17.6z"/>
	</g>
</g>
</svg>
